<svg xmlns="http://www.w3.org/2000/svg" xmlns:xlink="http://www.w3.org/1999/xlink" xmlns:lucid="lucid" width="1770.33" height="478.6"><g transform="translate(-179.5 -220.29999999999998)" lucid:page-tab-id="0_0"><path d="M0 0h2000v1000H0z" fill="#fff"/><path d="M200 247.6a6 6 0 0 1 6-6h168a6 6 0 0 1 6 6V394a6 6 0 0 1-6 6H206a6 6 0 0 1-6-6z" stroke="#3a414a" fill="#fff"/><use xlink:href="#a" transform="matrix(1,0,0,1,212,253.59999999999997) translate(0.3777777777777658 27.589583333333337)"/><use xlink:href="#b" transform="matrix(1,0,0,1,212,253.59999999999997) translate(26.199999999999992 27.589583333333337)"/><use xlink:href="#c" transform="matrix(1,0,0,1,212,253.59999999999997) translate(75.87407407407407 27.589583333333337)"/><use xlink:href="#d" transform="matrix(1,0,0,1,212,253.59999999999997) translate(57.803703703703704 49.98958333333334)"/><use xlink:href="#e" transform="matrix(1,0,0,1,212,253.59999999999997) translate(77.45555555555556 49.98958333333334)"/><use xlink:href="#f" transform="matrix(1,0,0,1,212,253.59999999999997) translate(4.525925925925918 72.38958333333335)"/><use xlink:href="#g" transform="matrix(1,0,0,1,212,253.59999999999997) translate(86.2962962962963 72.38958333333335)"/><use xlink:href="#h" transform="matrix(1,0,0,1,212,253.59999999999997) translate(71.77777777777777 94.78958333333335)"/><use xlink:href="#i" transform="matrix(1,0,0,1,212,253.59999999999997) translate(2.86666666666666 117.18958333333336)"/><use xlink:href="#j" transform="matrix(1,0,0,1,212,253.59999999999997) translate(47.407407407407405 117.18958333333336)"/><use xlink:href="#k" transform="matrix(1,0,0,1,212,253.59999999999997) translate(68.14814814814815 117.18958333333336)"/><use xlink:href="#l" transform="matrix(1,0,0,1,212,253.59999999999997) translate(112.6888888888889 117.18958333333336)"/><path d="M380 306.8a6 6 0 0 1 6-6h112a6 6 0 0 0 6-6v-8a2.3 2.3 0 0 1 4-1.54l28 31.08a6.67 6.67 0 0 1 0 8.92l-28 31.08a2.3 2.3 0 0 1-4-1.54v-8a6 6 0 0 0-6-6H386a6 6 0 0 1-6-6zM669.33 321c0 33.14-28.95 60-64.66 60-35.72 0-64.67-26.86-64.67-60s28.95-60 64.67-60c35.7 0 64.66 26.86 64.66 60z" stroke="#3a414a" fill="#fff"/><use xlink:href="#m" transform="matrix(1,0,0,1,545,266) translate(16.501296296296292 25.339583333333337)"/><use xlink:href="#n" transform="matrix(1,0,0,1,545,266) translate(26.374074074074073 47.73958333333334)"/><use xlink:href="#o" transform="matrix(1,0,0,1,545,266) translate(12.425925925925917 70.13958333333335)"/><use xlink:href="#p" transform="matrix(1,0,0,1,545,266) translate(36.17166666666667 92.53958333333335)"/><path d="M829.33 247.6a6 6 0 0 1 6-6h168a6 6 0 0 1 6 6V394a6 6 0 0 1-6 6h-168a6 6 0 0 1-6-6z" stroke="#3a414a" fill="#fff"/><use xlink:href="#q" transform="matrix(1,0,0,1,841.3333333333333,253.6) translate(55.21111111111111 48.68333333333334)"/><use xlink:href="#r" transform="matrix(1,0,0,1,841.3333333333333,253.6) translate(15.855555555555547 71.08333333333334)"/><use xlink:href="#j" transform="matrix(1,0,0,1,841.3333333333333,253.6) translate(64.49259259259259 71.08333333333334)"/><use xlink:href="#k" transform="matrix(1,0,0,1,841.3333333333333,253.6) translate(85.23333333333335 71.08333333333334)"/><use xlink:href="#s" transform="matrix(1,0,0,1,841.3333333333333,253.6) translate(129.7740740740741 71.08333333333334)"/><use xlink:href="#t" transform="matrix(1,0,0,1,841.3333333333333,253.6) translate(35.55925925925926 93.48333333333335)"/><use xlink:href="#u" transform="matrix(1,0,0,1,841.3333333333333,253.6) translate(75.95185185185184 93.48333333333335)"/><path d="M1009.33 306.8a6 6 0 0 1 6-6h112a6 6 0 0 0 6-6v-8a2.3 2.3 0 0 1 4.02-1.54l27.97 31.08a6.67 6.67 0 0 1 0 8.92l-27.97 31.08a2.3 2.3 0 0 1-4.02-1.54v-8a6 6 0 0 0-6-6h-112a6 6 0 0 1-6-6zM1298.67 320c0 33.7-28.96 61-64.67 61-35.7 0-64.67-27.3-64.67-61s28.96-61 64.67-61c35.7 0 64.67 27.3 64.67 61z" stroke="#3a414a" fill="#fff"/><use xlink:href="#v" transform="matrix(1,0,0,1,1174.333333333333,264) translate(60.004999999999995 18.464583333333337)"/><use xlink:href="#w" transform="matrix(1,0,0,1,1174.333333333333,264) translate(33.16425925925926 40.864583333333336)"/><use xlink:href="#o" transform="matrix(1,0,0,1,1174.333333333333,264) translate(12.425925925925917 63.26458333333334)"/><use xlink:href="#x" transform="matrix(1,0,0,1,1174.333333333333,264) translate(43.949444444444445 85.66458333333334)"/><use xlink:href="#y" transform="matrix(1,0,0,1,1174.333333333333,264) translate(59.504999999999995 108.06458333333335)"/><path d="M669.33 306.8a6 6 0 0 1 6-6h112a6 6 0 0 0 6-6v-8a2.3 2.3 0 0 1 4.02-1.54l27.97 31.08a6.67 6.67 0 0 1 0 8.92l-27.97 31.08a2.3 2.3 0 0 1-4.02-1.54v-8a6 6 0 0 0-6-6h-112a6 6 0 0 1-6-6z" stroke="#3a414a" fill="#fff"/><path d="M797.7 284.9" stroke="#3a414a" fill="none"/><path stroke="#3a414a" stroke-width=".05" fill="#3a414a"/><path d="M796.08 284.9l-14.26 4.64v-9.27z" stroke="#3a414a" fill="#3a414a"/><path d="M1458.67 246.8a6 6 0 0 1 6-6h168a6 6 0 0 1 6 6v146.4a6 6 0 0 1-6 6h-168a6 6 0 0 1-6-6z" stroke="#3a414a" fill="#fff"/><g><use xlink:href="#z" transform="matrix(1,0,0,1,1470.6666666666663,252.79999999999998) translate(14.299999999999997 36.02708333333334)"/><use xlink:href="#b" transform="matrix(1,0,0,1,1470.6666666666663,252.79999999999998) translate(52.67037037037037 36.02708333333334)"/><use xlink:href="#A" transform="matrix(1,0,0,1,1470.6666666666663,252.79999999999998) translate(102.34444444444445 36.02708333333334)"/><use xlink:href="#B" transform="matrix(1,0,0,1,1470.6666666666663,252.79999999999998) translate(15.337037037037028 58.42708333333334)"/><use xlink:href="#k" transform="matrix(1,0,0,1,1470.6666666666663,252.79999999999998) translate(36.07777777777777 58.42708333333334)"/><use xlink:href="#C" transform="matrix(1,0,0,1,1470.6666666666663,252.79999999999998) translate(80.61851851851853 58.42708333333334)"/><use xlink:href="#D" transform="matrix(1,0,0,1,1470.6666666666663,252.79999999999998) translate(96.17407407407407 58.42708333333334)"/><use xlink:href="#E" transform="matrix(1,0,0,1,1470.6666666666663,252.79999999999998) translate(3.462962962962962 80.82708333333335)"/><use xlink:href="#F" transform="matrix(1,0,0,1,1470.6666666666663,252.79999999999998) translate(28.351851851851855 80.82708333333335)"/><use xlink:href="#G" transform="matrix(1,0,0,1,1470.6666666666663,252.79999999999998) translate(108.04814814814816 80.82708333333335)"/><use xlink:href="#H" transform="matrix(1,0,0,1,1470.6666666666663,252.79999999999998) translate(14.066666666666663 103.22708333333335)"/><use xlink:href="#I" transform="matrix(1,0,0,1,1470.6666666666663,252.79999999999998) translate(52.33333333333333 103.22708333333335)"/></g><path d="M1638.67 306a6 6 0 0 1 6-6h112a6 6 0 0 0 6-6v-8a2.3 2.3 0 0 1 4-1.54l27.98 31.08a6.67 6.67 0 0 1 0 8.92l-27.97 31.08a2.3 2.3 0 0 1-4-1.54v-8a6 6 0 0 0-6-6h-112a6 6 0 0 1-6-6zM1929.33 319c0 33.7-28.95 61-64.66 61-35.72 0-64.67-27.3-64.67-61s28.95-61 64.67-61c35.7 0 64.66 27.3 64.66 61z" stroke="#3a414a" fill="#fff"/><g><use xlink:href="#v" transform="matrix(1,0,0,1,1805,263) translate(60.004999999999995 18.464583333333337)"/><use xlink:href="#J" transform="matrix(1,0,0,1,1805,263) translate(21.679074074074066 40.864583333333336)"/><use xlink:href="#o" transform="matrix(1,0,0,1,1805,263) translate(12.425925925925917 63.26458333333334)"/><use xlink:href="#K" transform="matrix(1,0,0,1,1805,263) translate(43.949444444444445 85.66458333333334)"/><use xlink:href="#y" transform="matrix(1,0,0,1,1805,263) translate(59.504999999999995 108.06458333333335)"/></g><path d="M1298.67 306a6 6 0 0 1 6-6h112a6 6 0 0 0 6-6v-8a2.3 2.3 0 0 1 4-1.54l27.98 31.08a6.67 6.67 0 0 1 0 8.92l-27.97 31.08a2.3 2.3 0 0 1-4-1.54v-8a6 6 0 0 0-6-6h-112a6 6 0 0 1-6-6z" stroke="#3a414a" fill="#fff"/><g><path d="M1878.67 380a6 6 0 0 1 6 6v112a6 6 0 0 0 6 6h8a2.3 2.3 0 0 1 1.54 4l-31.07 28a6.67 6.67 0 0 1-8.92 0l-31.07-28a2.3 2.3 0 0 1 1.54-4h8a6 6 0 0 0 6-6V386a6 6 0 0 1 6-6z" stroke="#3a414a" fill="#fff"/></g><path d="M1928 601c0 33.7-28.95 61-64.67 61-35.7 0-64.66-27.3-64.66-61s28.95-61 64.66-61c35.72 0 64.67 27.3 64.67 61z" stroke="#3a414a" fill="#fff"/><g><use xlink:href="#v" transform="matrix(1,0,0,1,1803.6666666666665,545) translate(60.004999999999995 18.464583333333337)"/><use xlink:href="#L" transform="matrix(1,0,0,1,1803.6666666666665,545) translate(17.064259259259252 40.864583333333336)"/><use xlink:href="#M" transform="matrix(1,0,0,1,1803.6666666666665,545) translate(14.474074074074075 63.26458333333334)"/><use xlink:href="#N" transform="matrix(1,0,0,1,1803.6666666666665,545) translate(36.17166666666666 85.66458333333334)"/><use xlink:href="#y" transform="matrix(1,0,0,1,1803.6666666666665,545) translate(59.504999999999995 108.06458333333335)"/></g><g><path d="M1798.67 614a6 6 0 0 1-6 6h-112a6 6 0 0 0-6 6v8a2.3 2.3 0 0 1-4.02 1.54l-27.97-31.08a6.67 6.67 0 0 1 0-8.92l27.97-31.08a2.3 2.3 0 0 1 4.02 1.54v8a6 6 0 0 0 6 6h112a6 6 0 0 1 6 6z" stroke="#3a414a" fill="#fff"/></g><path d="M1458.67 526a6 6 0 0 1 6-6h168a6 6 0 0 1 6 6v146.4a6 6 0 0 1-6 6h-168a6 6 0 0 1-6-6z" stroke="#3a414a" fill="#fff"/><g><use xlink:href="#O" transform="matrix(1,0,0,1,1470.6666666666663,532) translate(7.092592592592581 48.68333333333334)"/><use xlink:href="#P" transform="matrix(1,0,0,1,1470.6666666666663,532) translate(101.25555555555556 48.68333333333334)"/><use xlink:href="#Q" transform="matrix(1,0,0,1,1470.6666666666663,532) translate(21.325925925925922 71.08333333333334)"/><use xlink:href="#R" transform="matrix(1,0,0,1,1470.6666666666663,532) translate(59.59259259259259 71.08333333333334)"/><use xlink:href="#S" transform="matrix(1,0,0,1,1470.6666666666663,532) translate(29.544444444444437 93.48333333333335)"/><use xlink:href="#T" transform="matrix(1,0,0,1,1470.6666666666663,532) translate(47.17407407407407 93.48333333333335)"/></g><g><path d="M1458.67 613.2a6 6 0 0 1-6 6h-112a6 6 0 0 0-6 6v8a2.3 2.3 0 0 1-4.02 1.54l-27.97-31.08a6.67 6.67 0 0 1 0-8.92l27.97-31.08a2.3 2.3 0 0 1 4.02 1.54v8a6 6 0 0 0 6 6h112a6 6 0 0 1 6 6z" stroke="#3a414a" fill="#fff"/></g><path d="M1298.67 599c0 33.7-28.96 61-64.67 61-35.7 0-64.67-27.3-64.67-61s28.96-61 64.67-61c35.7 0 64.67 27.3 64.67 61z" stroke="#3a414a" fill="#fff"/><g><use xlink:href="#U" transform="matrix(1,0,0,1,1174.333333333333,543) translate(59.504999999999995 27.866666666666667)"/><use xlink:href="#V" transform="matrix(1,0,0,1,1174.333333333333,543) translate(45.55555555555556 48.66666666666667)"/><use xlink:href="#W" transform="matrix(1,0,0,1,1174.333333333333,543) translate(36.407407407407405 69.46666666666668)"/><use xlink:href="#X" transform="matrix(1,0,0,1,1174.333333333333,543) translate(60.004999999999995 90.26666666666668)"/></g><g><path d="M1169.33 613.8a6 6 0 0 1-6 6h-112a6 6 0 0 0-6 6v8a2.3 2.3 0 0 1-4 1.54l-27.98-31.08a6.67 6.67 0 0 1 0-8.92l27.97-31.08a2.3 2.3 0 0 1 4 1.54v8a6 6 0 0 0 6 6h112a6 6 0 0 1 6 6z" stroke="#3a414a" fill="#fff"/></g><path d="M829.33 525.8a6 6 0 0 1 6-6h168a6 6 0 0 1 6 6v146.4a6 6 0 0 1-6 6h-168a6 6 0 0 1-6-6z" stroke="#3a414a" fill="#fff"/><g><use xlink:href="#Y" transform="matrix(1,0,0,1,841.3333333333333,531.8) translate(44.840740740740735 48.68333333333334)"/><use xlink:href="#Z" transform="matrix(1,0,0,1,841.3333333333333,531.8) translate(56.3 71.08333333333334)"/><use xlink:href="#aa" transform="matrix(1,0,0,1,841.3333333333333,531.8) translate(27.21111111111111 93.48333333333335)"/></g><g><path d="M829.33 613a6 6 0 0 1-6 6h-112a6 6 0 0 0-6 6v8a2.3 2.3 0 0 1-4 1.54l-27.98-31.08a6.67 6.67 0 0 1 0-8.92l27.97-31.08a2.3 2.3 0 0 1 4 1.54v8a6 6 0 0 0 6 6h112a6 6 0 0 1 6 6z" stroke="#3a414a" fill="#fff"/></g><path d="M669.33 598.8c0 33.7-28.95 61-64.66 61-35.72 0-64.67-27.3-64.67-61s28.95-61 64.67-61c35.7 0 64.66 27.3 64.66 61z" stroke="#3a414a" fill="#fff"/><g><use xlink:href="#ab" transform="matrix(1,0,0,1,545,542.8) translate(59.504999999999995 27.866666666666667)"/><use xlink:href="#ac" transform="matrix(1,0,0,1,545,542.8) translate(45.55555555555556 48.66666666666667)"/><use xlink:href="#ad" transform="matrix(1,0,0,1,545,542.8) translate(34.5537037037037 69.46666666666668)"/><use xlink:href="#ae" transform="matrix(1,0,0,1,545,542.8) translate(60.004999999999995 90.26666666666668)"/></g><defs><path fill="#333" d="M205 0l-28-72H64L36 0H1l101-248h38L239 0h-34zm-38-99l-47-123c-12 45-31 82-46 123h93" id="af"/><path fill="#333" d="M24 0v-261h32V0H24" id="ag"/><g id="a"><use transform="matrix(0.05185185185185186,0,0,0.05185185185185186,0,0)" xlink:href="#af"/><use transform="matrix(0.05185185185185186,0,0,0.05185185185185186,12.444444444444446,0)" xlink:href="#ag"/><use transform="matrix(0.05185185185185186,0,0,0.05185185185185186,16.540740740740745,0)" xlink:href="#ag"/></g><path fill="#333" d="M24-231v-30h32v30H24zM24 0v-190h32V0H24" id="ah"/><path fill="#333" d="M59-47c-2 24 18 29 38 22v24C64 9 27 4 27-40v-127H5v-23h24l9-43h21v43h35v23H59v120" id="ai"/><path fill="#333" d="M100-194c63 0 86 42 84 106H49c0 40 14 67 53 68 26 1 43-12 49-29l28 8c-11 28-37 45-77 45C44 4 14-33 15-96c1-61 26-98 85-98zm52 81c6-60-76-77-97-28-3 7-6 17-6 28h103" id="aj"/><path fill="#333" d="M210-169c-67 3-38 105-44 169h-31v-121c0-29-5-50-35-48C34-165 62-65 56 0H25l-1-190h30c1 10-1 24 2 32 10-44 99-50 107 0 11-21 27-35 58-36 85-2 47 119 55 194h-31v-121c0-29-5-49-35-48" id="ak"/><path fill="#333" d="M135-143c-3-34-86-38-87 0 15 53 115 12 119 90S17 21 10-45l28-5c4 36 97 45 98 0-10-56-113-15-118-90-4-57 82-63 122-42 12 7 21 19 24 35" id="al"/><g id="b"><use transform="matrix(0.05185185185185186,0,0,0.05185185185185186,0,0)" xlink:href="#ah"/><use transform="matrix(0.05185185185185186,0,0,0.05185185185185186,4.0962962962962965,0)" xlink:href="#ai"/><use transform="matrix(0.05185185185185186,0,0,0.05185185185185186,9.281481481481482,0)" xlink:href="#aj"/><use transform="matrix(0.05185185185185186,0,0,0.05185185185185186,19.651851851851852,0)" xlink:href="#ak"/><use transform="matrix(0.05185185185185186,0,0,0.05185185185185186,35.15555555555556,0)" xlink:href="#al"/></g><path fill="#333" d="M115-194c55 1 70 41 70 98S169 2 115 4C84 4 66-9 55-30l1 105H24l-1-265h31l2 30c10-21 28-34 59-34zm-8 174c40 0 45-34 45-75s-6-73-45-74c-42 0-51 32-51 76 0 43 10 73 51 73" id="am"/><path fill="#333" d="M84 4C-5 8 30-112 23-190h32v120c0 31 7 50 39 49 72-2 45-101 50-169h31l1 190h-30c-1-10 1-25-2-33-11 22-28 36-60 37" id="an"/><path fill="#333" d="M115-194c53 0 69 39 70 98 0 66-23 100-70 100C84 3 66-7 56-30L54 0H23l1-261h32v101c10-23 28-34 59-34zm-8 174c40 0 45-34 45-75 0-40-5-75-45-74-42 0-51 32-51 76 0 43 10 73 51 73" id="ao"/><path fill="#333" d="M106-169C34-169 62-67 57 0H25v-261h32l-1 103c12-21 28-36 61-36 89 0 53 116 60 194h-32v-121c2-32-8-49-39-48" id="ap"/><path fill="#333" d="M85-194c31 0 48 13 60 33l-1-100h32l1 261h-30c-2-10 0-23-3-31C134-8 116 4 85 4 32 4 16-35 15-94c0-66 23-100 70-100zm9 24c-40 0-46 34-46 75 0 40 6 74 45 74 42 0 51-32 51-76 0-42-9-74-50-73" id="aq"/><g id="c"><use transform="matrix(0.05185185185185186,0,0,0.05185185185185186,0,0)" xlink:href="#am"/><use transform="matrix(0.05185185185185186,0,0,0.05185185185185186,10.370370370370372,0)" xlink:href="#an"/><use transform="matrix(0.05185185185185186,0,0,0.05185185185185186,20.740740740740744,0)" xlink:href="#ao"/><use transform="matrix(0.05185185185185186,0,0,0.05185185185185186,31.111111111111114,0)" xlink:href="#ag"/><use transform="matrix(0.05185185185185186,0,0,0.05185185185185186,35.20740740740741,0)" xlink:href="#ah"/><use transform="matrix(0.05185185185185186,0,0,0.05185185185185186,39.303703703703704,0)" xlink:href="#al"/><use transform="matrix(0.05185185185185186,0,0,0.05185185185185186,48.63703703703704,0)" xlink:href="#ap"/><use transform="matrix(0.05185185185185186,0,0,0.05185185185185186,59.00740740740741,0)" xlink:href="#aj"/><use transform="matrix(0.05185185185185186,0,0,0.05185185185185186,69.37777777777778,0)" xlink:href="#aq"/></g><path fill="#333" d="M117-194c89-4 53 116 60 194h-32v-121c0-31-8-49-39-48C34-167 62-67 57 0H25l-1-190h30c1 10-1 24 2 32 11-22 29-35 61-36" id="ar"/><g id="d"><use transform="matrix(0.05185185185185186,0,0,0.05185185185185186,0,0)" xlink:href="#ah"/><use transform="matrix(0.05185185185185186,0,0,0.05185185185185186,4.0962962962962965,0)" xlink:href="#ar"/></g><path fill="#333" d="M27 0v-27h64v-190l-56 39v-29l58-41h29v221h61V0H27" id="as"/><path fill="#333" d="M134-131c28 9 52 24 51 62-1 50-34 73-85 73S17-19 16-69c0-36 21-54 49-61-75-25-45-126 34-121 46 3 78 18 79 63 0 33-17 51-44 57zm-34-11c31 1 46-15 46-44 0-28-17-43-47-42-29 0-46 13-45 42 1 28 16 44 46 44zm1 122c35 0 51-18 51-52 0-30-18-46-53-46-33 0-51 17-51 47 0 34 19 51 53 51" id="at"/><g id="e"><use transform="matrix(0.05185185185185186,0,0,0.05185185185185186,0,0)" xlink:href="#as"/><use transform="matrix(0.05185185185185186,0,0,0.05185185185185186,10.370370370370372,0)" xlink:href="#at"/></g><path fill="#333" d="M96-169c-40 0-48 33-48 73s9 75 48 75c24 0 41-14 43-38l32 2c-6 37-31 61-74 61-59 0-76-41-82-99-10-93 101-131 147-64 4 7 5 14 7 22l-32 3c-4-21-16-35-41-35" id="au"/><path fill="#333" d="M141-36C126-15 110 5 73 4 37 3 15-17 15-53c-1-64 63-63 125-63 3-35-9-54-41-54-24 1-41 7-42 31l-33-3c5-37 33-52 76-52 45 0 72 20 72 64v82c-1 20 7 32 28 27v20c-31 9-61-2-59-35zM48-53c0 20 12 33 32 33 41-3 63-29 60-74-43 2-92-5-92 41" id="av"/><g id="f"><use transform="matrix(0.05185185185185186,0,0,0.05185185185185186,0,0)" xlink:href="#al"/><use transform="matrix(0.05185185185185186,0,0,0.05185185185185186,9.333333333333334,0)" xlink:href="#am"/><use transform="matrix(0.05185185185185186,0,0,0.05185185185185186,19.703703703703706,0)" xlink:href="#aj"/><use transform="matrix(0.05185185185185186,0,0,0.05185185185185186,30.074074074074076,0)" xlink:href="#au"/><use transform="matrix(0.05185185185185186,0,0,0.05185185185185186,39.40740740740741,0)" xlink:href="#ah"/><use transform="matrix(0.05185185185185186,0,0,0.05185185185185186,43.50370370370371,0)" xlink:href="#av"/><use transform="matrix(0.05185185185185186,0,0,0.05185185185185186,53.87407407407408,0)" xlink:href="#ag"/><use transform="matrix(0.05185185185185186,0,0,0.05185185185185186,57.970370370370375,0)" xlink:href="#ah"/><use transform="matrix(0.05185185185185186,0,0,0.05185185185185186,62.06666666666667,0)" xlink:href="#al"/><use transform="matrix(0.05185185185185186,0,0,0.05185185185185186,71.4,0)" xlink:href="#ai"/></g><path fill="#333" d="M24-231v-30h32v30H24zM-9 49c24 4 33-6 33-30v-209h32V24c2 40-23 58-65 49V49" id="aw"/><path fill="#333" d="M100-194c62-1 85 37 85 99 1 63-27 99-86 99S16-35 15-95c0-66 28-99 85-99zM99-20c44 1 53-31 53-75 0-43-8-75-51-75s-53 32-53 75 10 74 51 75" id="ax"/><path fill="#333" d="M114-163C36-179 61-72 57 0H25l-1-190h30c1 12-1 29 2 39 6-27 23-49 58-41v29" id="ay"/><g id="g"><use transform="matrix(0.05185185185185186,0,0,0.05185185185185186,0,0)" xlink:href="#aw"/><use transform="matrix(0.05185185185185186,0,0,0.05185185185185186,4.0962962962962965,0)" xlink:href="#ax"/><use transform="matrix(0.05185185185185186,0,0,0.05185185185185186,14.466666666666669,0)" xlink:href="#an"/><use transform="matrix(0.05185185185185186,0,0,0.05185185185185186,24.837037037037042,0)" xlink:href="#ay"/><use transform="matrix(0.05185185185185186,0,0,0.05185185185185186,31.00740740740741,0)" xlink:href="#ar"/><use transform="matrix(0.05185185185185186,0,0,0.05185185185185186,41.37777777777779,0)" xlink:href="#av"/><use transform="matrix(0.05185185185185186,0,0,0.05185185185185186,51.74814814814816,0)" xlink:href="#ag"/><use transform="matrix(0.05185185185185186,0,0,0.05185185185185186,55.84444444444445,0)" xlink:href="#al"/></g><path fill="#333" d="M234-2c-28 10-62 0-77-18C117 19 8 12 13-65c3-43 29-61 60-76-25-40-17-114 47-108 35 3 59 15 59 50 0 44-40 53-71 69 14 26 32 50 51 72 14-21 24-43 30-72l26 8c-9 33-21 57-38 82 13 13 33 22 57 15v23zM97-151c25-10 52-18 56-48-1-18-13-29-33-29-42 0-39 50-23 77zM42-66c-3 51 71 58 98 28-20-24-41-51-56-80-23 10-40 24-42 52" id="az"/><use transform="matrix(0.05185185185185186,0,0,0.05185185185185186,0,0)" xlink:href="#az" id="h"/><g id="i"><use transform="matrix(0.05185185185185186,0,0,0.05185185185185186,0,0)" xlink:href="#au"/><use transform="matrix(0.05185185185185186,0,0,0.05185185185185186,9.333333333333334,0)" xlink:href="#ah"/><use transform="matrix(0.05185185185185186,0,0,0.05185185185185186,13.42962962962963,0)" xlink:href="#ai"/><use transform="matrix(0.05185185185185186,0,0,0.05185185185185186,18.614814814814817,0)" xlink:href="#aj"/><use transform="matrix(0.05185185185185186,0,0,0.05185185185185186,28.985185185185188,0)" xlink:href="#aq"/></g><g id="j"><use transform="matrix(0.05185185185185186,0,0,0.05185185185185186,0,0)" xlink:href="#av"/><use transform="matrix(0.05185185185185186,0,0,0.05185185185185186,10.370370370370372,0)" xlink:href="#ai"/></g><g id="k"><use transform="matrix(0.05185185185185186,0,0,0.05185185185185186,0,0)" xlink:href="#ag"/><use transform="matrix(0.05185185185185186,0,0,0.05185185185185186,4.0962962962962965,0)" xlink:href="#aj"/><use transform="matrix(0.05185185185185186,0,0,0.05185185185185186,14.466666666666669,0)" xlink:href="#av"/><use transform="matrix(0.05185185185185186,0,0,0.05185185185185186,24.837037037037042,0)" xlink:href="#al"/><use transform="matrix(0.05185185185185186,0,0,0.05185185185185186,34.17037037037038,0)" xlink:href="#ai"/></g><g id="l"><use transform="matrix(0.05185185185185186,0,0,0.05185185185185186,0,0)" xlink:href="#ax"/><use transform="matrix(0.05185185185185186,0,0,0.05185185185185186,10.370370370370372,0)" xlink:href="#ar"/><use transform="matrix(0.05185185185185186,0,0,0.05185185185185186,20.740740740740744,0)" xlink:href="#au"/><use transform="matrix(0.05185185185185186,0,0,0.05185185185185186,30.074074074074076,0)" xlink:href="#aj"/></g><path fill="#333" d="M169-182c-1-43-94-46-97-3 18 66 151 10 154 114 3 95-165 93-204 36-6-8-10-19-12-30l50-8c3 46 112 56 116 5-17-69-150-10-154-114-4-87 153-88 188-35 5 8 8 18 10 28" id="aA"/><path fill="#333" d="M135-194c53 0 70 44 70 98 0 56-19 98-73 100-31 1-45-17-59-34 3 33 2 69 2 105H25l-1-265h48c2 10 0 23 3 31 11-24 29-35 60-35zM114-30c33 0 39-31 40-66 0-38-9-64-40-64-56 0-55 130 0 130" id="aB"/><path fill="#333" d="M185-48c-13 30-37 53-82 52C43 2 14-33 14-96s30-98 90-98c62 0 83 45 84 108H66c0 31 8 55 39 56 18 0 30-7 34-22zm-45-69c5-46-57-63-70-21-2 6-4 13-4 21h74" id="aC"/><path fill="#333" d="M190-63c-7 42-38 67-86 67-59 0-84-38-90-98-12-110 154-137 174-36l-49 2c-2-19-15-32-35-32-30 0-35 28-38 64-6 74 65 87 74 30" id="aD"/><path fill="#333" d="M25-224v-37h50v37H25zM25 0v-190h50V0H25" id="aE"/><path fill="#333" d="M133-34C117-15 103 5 69 4 32 3 11-16 11-54c-1-60 55-63 116-61 1-26-3-47-28-47-18 1-26 9-28 27l-52-2c7-38 36-58 82-57s74 22 75 68l1 82c-1 14 12 18 25 15v27c-30 8-71 5-69-32zm-48 3c29 0 43-24 42-57-32 0-66-3-65 30 0 17 8 27 23 27" id="aF"/><path fill="#333" d="M25 0v-261h50V0H25" id="aG"/><path fill="#333" d="M137-138c1-29-70-34-71-4 15 46 118 7 119 86 1 83-164 76-172 9l43-7c4 19 20 25 44 25 33 8 57-30 24-41C81-84 22-81 20-136c-2-80 154-74 161-7" id="aH"/><path fill="#333" d="M115-3C79 11 28 4 28-45v-112H4v-33h27l15-45h31v45h36v33H77v99c-1 23 16 31 38 25v30" id="aI"/><g id="m"><use transform="matrix(0.05185185185185186,0,0,0.05185185185185186,0,0)" xlink:href="#aA"/><use transform="matrix(0.05185185185185186,0,0,0.05185185185185186,12.444444444444446,0)" xlink:href="#aB"/><use transform="matrix(0.05185185185185186,0,0,0.05185185185185186,23.800000000000004,0)" xlink:href="#aC"/><use transform="matrix(0.05185185185185186,0,0,0.05185185185185186,34.17037037037038,0)" xlink:href="#aD"/><use transform="matrix(0.05185185185185186,0,0,0.05185185185185186,44.54074074074075,0)" xlink:href="#aE"/><use transform="matrix(0.05185185185185186,0,0,0.05185185185185186,49.725925925925935,0)" xlink:href="#aF"/><use transform="matrix(0.05185185185185186,0,0,0.05185185185185186,60.096296296296316,0)" xlink:href="#aG"/><use transform="matrix(0.05185185185185186,0,0,0.05185185185185186,65.28148148148149,0)" xlink:href="#aE"/><use transform="matrix(0.05185185185185186,0,0,0.05185185185185186,70.46666666666668,0)" xlink:href="#aH"/><use transform="matrix(0.05185185185185186,0,0,0.05185185185185186,80.83703703703705,0)" xlink:href="#aI"/></g><path fill="#333" d="M176-78C186 10 51 31 16-35c-5-9-9-19-11-32l52-8c4 21 12 37 35 38 23 0 32-16 32-40v-130H75v-41h101v170" id="aJ"/><path fill="#333" d="M110-194c64 0 96 36 96 99 0 64-35 99-97 99-61 0-95-36-95-99 0-62 34-99 96-99zm-1 164c35 0 45-28 45-65 0-40-10-65-43-65-34 0-45 26-45 65 0 36 10 65 43 65" id="aK"/><path fill="#333" d="M85 4C-2 5 27-109 22-190h50c7 57-23 150 33 157 60-5 35-97 40-157h50l1 190h-47c-2-12 1-28-3-38-12 25-28 42-61 42" id="aL"/><path fill="#333" d="M135-150c-39-12-60 13-60 57V0H25l-1-190h47c2 13-1 29 3 40 6-28 27-53 61-41v41" id="aM"/><path fill="#333" d="M135-194c87-1 58 113 63 194h-50c-7-57 23-157-34-157-59 0-34 97-39 157H25l-1-190h47c2 12-1 28 3 38 12-26 28-41 61-42" id="aN"/><g id="n"><use transform="matrix(0.05185185185185186,0,0,0.05185185185185186,0,0)" xlink:href="#aJ"/><use transform="matrix(0.05185185185185186,0,0,0.05185185185185186,10.370370370370372,0)" xlink:href="#aK"/><use transform="matrix(0.05185185185185186,0,0,0.05185185185185186,21.725925925925928,0)" xlink:href="#aL"/><use transform="matrix(0.05185185185185186,0,0,0.05185185185185186,33.08148148148148,0)" xlink:href="#aM"/><use transform="matrix(0.05185185185185186,0,0,0.05185185185185186,40.34074074074074,0)" xlink:href="#aN"/><use transform="matrix(0.05185185185185186,0,0,0.05185185185185186,51.696296296296296,0)" xlink:href="#aF"/><use transform="matrix(0.05185185185185186,0,0,0.05185185185185186,62.06666666666667,0)" xlink:href="#aG"/></g><path fill="#333" d="M67-125c0 53 21 87 73 88 37 1 54-22 65-47l45 17C233-25 199 4 140 4 58 4 20-42 15-125 8-235 124-281 211-232c18 10 29 29 36 50l-46 12c-8-25-30-41-62-41-52 0-71 34-72 86" id="aO"/><path fill="#333" d="M33-154v-36h34v36H33zM33 0v-36h34V0H33" id="aP"/><g id="o"><use transform="matrix(0.05185185185185186,0,0,0.05185185185185186,0,0)" xlink:href="#aO"/><use transform="matrix(0.05185185185185186,0,0,0.05185185185185186,13.42962962962963,0)" xlink:href="#aK"/><use transform="matrix(0.05185185185185186,0,0,0.05185185185185186,24.785185185185185,0)" xlink:href="#aG"/><use transform="matrix(0.05185185185185186,0,0,0.05185185185185186,29.970370370370375,0)" xlink:href="#aG"/><use transform="matrix(0.05185185185185186,0,0,0.05185185185185186,35.15555555555556,0)" xlink:href="#aC"/><use transform="matrix(0.05185185185185186,0,0,0.05185185185185186,45.52592592592593,0)" xlink:href="#aD"/><use transform="matrix(0.05185185185185186,0,0,0.05185185185185186,55.8962962962963,0)" xlink:href="#aI"/><use transform="matrix(0.05185185185185186,0,0,0.05185185185185186,62.06666666666667,0)" xlink:href="#aE"/><use transform="matrix(0.05185185185185186,0,0,0.05185185185185186,67.25185185185187,0)" xlink:href="#aK"/><use transform="matrix(0.05185185185185186,0,0,0.05185185185185186,78.60740740740742,0)" xlink:href="#aN"/><use transform="matrix(0.05185185185185186,0,0,0.05185185185185186,89.96296296296298,0)" xlink:href="#aP"/></g><path fill="#333" d="M155-56V0h-30v-56H8v-25l114-167h33v167h35v25h-35zm-30-156c-27 46-58 90-88 131h88v-131" id="aQ"/><path fill="#333" d="M68-38c1 34 0 65-14 84H32c9-13 17-26 17-46H33v-38h35" id="aR"/><path fill="#333" d="M110-160c48 1 74 30 74 79 0 53-28 85-80 85-65 0-83-55-86-122-5-90 50-162 133-122 14 7 22 21 27 39l-31 6c-5-40-67-38-82-6-9 19-15 44-15 74 11-20 30-34 60-33zm-7 138c34 0 49-23 49-58s-16-56-50-56c-29 0-50 16-49 49 1 36 15 65 50 65" id="aS"/><path fill="#333" d="M126-127c33 6 58 20 58 59 0 88-139 92-164 29-3-8-5-16-6-25l32-3c6 27 21 44 54 44 32 0 52-15 52-46 0-38-36-46-79-43v-28c39 1 72-4 72-42 0-27-17-43-46-43-28 0-47 15-49 41l-32-3c6-42 35-63 81-64 48-1 79 21 79 65 0 36-21 52-52 59" id="aT"/><g id="p"><use transform="matrix(0.05185185185185186,0,0,0.05185185185185186,0,0)" xlink:href="#aQ"/><use transform="matrix(0.05185185185185186,0,0,0.05185185185185186,10.370370370370372,0)" xlink:href="#aR"/><use transform="matrix(0.05185185185185186,0,0,0.05185185185185186,15.555555555555557,0)" xlink:href="#aS"/><use transform="matrix(0.05185185185185186,0,0,0.05185185185185186,25.92592592592593,0)" xlink:href="#at"/><use transform="matrix(0.05185185185185186,0,0,0.05185185185185186,36.296296296296305,0)" xlink:href="#aT"/></g><path fill="#333" d="M33 0v-248h34V0H33" id="aU"/><g id="q"><use transform="matrix(0.05185185185185186,0,0,0.05185185185185186,0,0)" xlink:href="#aU"/><use transform="matrix(0.05185185185185186,0,0,0.05185185185185186,5.185185185185186,0)" xlink:href="#ai"/><use transform="matrix(0.05185185185185186,0,0,0.05185185185185186,10.370370370370372,0)" xlink:href="#aj"/><use transform="matrix(0.05185185185185186,0,0,0.05185185185185186,20.740740740740744,0)" xlink:href="#ak"/><use transform="matrix(0.05185185185185186,0,0,0.05185185185185186,36.24444444444445,0)" xlink:href="#al"/></g><path fill="#333" d="M177-190C167-65 218 103 67 71c-23-6-38-20-44-43l32-5c15 47 100 32 89-28v-30C133-14 115 1 83 1 29 1 15-40 15-95c0-56 16-97 71-98 29-1 48 16 59 35 1-10 0-23 2-32h30zM94-22c36 0 50-32 50-73 0-42-14-75-50-75-39 0-46 34-46 75s6 73 46 73" id="aV"/><g id="r"><use transform="matrix(0.05185185185185186,0,0,0.05185185185185186,0,0)" xlink:href="#au"/><use transform="matrix(0.05185185185185186,0,0,0.05185185185185186,9.333333333333334,0)" xlink:href="#ah"/><use transform="matrix(0.05185185185185186,0,0,0.05185185185185186,13.42962962962963,0)" xlink:href="#ai"/><use transform="matrix(0.05185185185185186,0,0,0.05185185185185186,18.614814814814817,0)" xlink:href="#ah"/><use transform="matrix(0.05185185185185186,0,0,0.05185185185185186,22.711111111111116,0)" xlink:href="#ar"/><use transform="matrix(0.05185185185185186,0,0,0.05185185185185186,33.08148148148149,0)" xlink:href="#aV"/></g><path fill="#333" d="M54-142c48-35 137-8 131 61C196 18 31 33 14-55l32-4c7 23 22 37 52 37 35-1 51-22 54-58 4-55-73-65-99-34H22l8-134h141v27H59" id="aW"/><use transform="matrix(0.05185185185185186,0,0,0.05185185185185186,0,0)" xlink:href="#aW" id="s"/><path fill="#333" d="M185-189c-5-48-123-54-124 2 14 75 158 14 163 119 3 78-121 87-175 55-17-10-28-26-33-46l33-7c5 56 141 63 141-1 0-78-155-14-162-118-5-82 145-84 179-34 5 7 8 16 11 25" id="aX"/><path fill="#333" d="M153-248C145-148 188 4 80 4 36 3 13-21 6-62l32-5c4 25 16 42 43 43 27 0 39-20 39-49v-147H72v-28h81" id="aY"/><path fill="#333" d="M212-179c-10-28-35-45-73-45-59 0-87 40-87 99 0 60 29 101 89 101 43 0 62-24 78-52l27 14C228-24 195 4 139 4 59 4 22-46 18-125c-6-104 99-153 187-111 19 9 31 26 39 46" id="aZ"/><g id="t"><use transform="matrix(0.05185185185185186,0,0,0.05185185185185186,0,0)" xlink:href="#aX"/><use transform="matrix(0.05185185185185186,0,0,0.05185185185185186,12.444444444444446,0)" xlink:href="#aY"/><use transform="matrix(0.05185185185185186,0,0,0.05185185185185186,21.77777777777778,0)" xlink:href="#aZ"/></g><g id="u"><use transform="matrix(0.05185185185185186,0,0,0.05185185185185186,0,0)" xlink:href="#ah"/><use transform="matrix(0.05185185185185186,0,0,0.05185185185185186,4.0962962962962965,0)" xlink:href="#ai"/><use transform="matrix(0.05185185185185186,0,0,0.05185185185185186,9.281481481481482,0)" xlink:href="#aj"/><use transform="matrix(0.05185185185185186,0,0,0.05185185185185186,19.651851851851852,0)" xlink:href="#ak"/><use transform="matrix(0.05185185185185186,0,0,0.05185185185185186,35.15555555555556,0)" xlink:href="#al"/></g><path fill="#333" d="M195-6C206 82 75 100 31 46c-4-6-6-13-8-21l49-6c3 16 16 24 34 25 40 0 42-37 40-79-11 22-30 35-61 35-53 0-70-43-70-97 0-56 18-96 73-97 30 0 46 14 59 34l2-30h47zm-90-29c32 0 41-27 41-63 0-35-9-62-40-62-32 0-39 29-40 63 0 36 9 62 39 62" id="ba"/><g id="w"><use transform="matrix(0.05185185185185186,0,0,0.05185185185185186,0,0)" xlink:href="#aO"/><use transform="matrix(0.05185185185185186,0,0,0.05185185185185186,13.42962962962963,0)" xlink:href="#aE"/><use transform="matrix(0.05185185185185186,0,0,0.05185185185185186,18.614814814814817,0)" xlink:href="#aI"/><use transform="matrix(0.05185185185185186,0,0,0.05185185185185186,24.78518518518519,0)" xlink:href="#aE"/><use transform="matrix(0.05185185185185186,0,0,0.05185185185185186,29.970370370370375,0)" xlink:href="#aN"/><use transform="matrix(0.05185185185185186,0,0,0.05185185185185186,41.32592592592593,0)" xlink:href="#ba"/></g><path fill="#333" d="M64 0c3-98 48-159 88-221H18v-27h164v26C143-157 98-101 97 0H64" id="bb"/><path fill="#333" d="M99-251c64 0 84 50 84 122C183-37 130 33 47-8c-14-7-20-23-25-40l30-5c6 39 69 39 84 7 9-19 16-44 16-74-10 22-31 35-62 35-49 0-73-33-73-83 0-54 28-83 82-83zm-1 141c31-1 51-18 51-49 0-36-14-67-51-67-34 0-49 23-49 58 0 34 15 58 49 58" id="bc"/><g id="x"><use transform="matrix(0.05185185185185186,0,0,0.05185185185185186,0,0)" xlink:href="#bb"/><use transform="matrix(0.05185185185185186,0,0,0.05185185185185186,10.370370370370372,0)" xlink:href="#bc"/><use transform="matrix(0.05185185185185186,0,0,0.05185185185185186,20.740740740740744,0)" xlink:href="#bc"/></g><g id="z"><use transform="matrix(0.05185185185185186,0,0,0.05185185185185186,0,0)" xlink:href="#af"/><use transform="matrix(0.05185185185185186,0,0,0.05185185185185186,12.444444444444446,0)" xlink:href="#aq"/><use transform="matrix(0.05185185185185186,0,0,0.05185185185185186,22.814814814814817,0)" xlink:href="#aq"/></g><g id="A"><use transform="matrix(0.05185185185185186,0,0,0.05185185185185186,0,0)" xlink:href="#au"/><use transform="matrix(0.05185185185185186,0,0,0.05185185185185186,9.333333333333334,0)" xlink:href="#ah"/><use transform="matrix(0.05185185185185186,0,0,0.05185185185185186,13.42962962962963,0)" xlink:href="#ai"/><use transform="matrix(0.05185185185185186,0,0,0.05185185185185186,18.614814814814817,0)" xlink:href="#aj"/><use transform="matrix(0.05185185185185186,0,0,0.05185185185185186,28.985185185185188,0)" xlink:href="#aq"/></g><g id="B"><use transform="matrix(0.05185185185185186,0,0,0.05185185185185186,0,0)" xlink:href="#av"/><use transform="matrix(0.05185185185185186,0,0,0.05185185185185186,10.370370370370372,0)" xlink:href="#ai"/></g><use transform="matrix(0.05185185185185186,0,0,0.05185185185185186,0,0)" xlink:href="#aS" id="C"/><g id="D"><use transform="matrix(0.05185185185185186,0,0,0.05185185185185186,0,0)" xlink:href="#ai"/><use transform="matrix(0.05185185185185186,0,0,0.05185185185185186,5.185185185185186,0)" xlink:href="#ah"/><use transform="matrix(0.05185185185185186,0,0,0.05185185185185186,9.281481481481482,0)" xlink:href="#ak"/><use transform="matrix(0.05185185185185186,0,0,0.05185185185185186,24.785185185185185,0)" xlink:href="#aj"/><use transform="matrix(0.05185185185185186,0,0,0.05185185185185186,35.15555555555556,0)" xlink:href="#al"/></g><path fill="#333" d="M179-190L93 31C79 59 56 82 12 73V49c39 6 53-20 64-50L1-190h34L92-34l54-156h33" id="bd"/><g id="E"><use transform="matrix(0.05185185185185186,0,0,0.05185185185185186,0,0)" xlink:href="#ao"/><use transform="matrix(0.05185185185185186,0,0,0.05185185185185186,10.370370370370372,0)" xlink:href="#bd"/></g><g id="F"><use transform="matrix(0.05185185185185186,0,0,0.05185185185185186,0,0)" xlink:href="#aX"/><use transform="matrix(0.05185185185185186,0,0,0.05185185185185186,12.444444444444446,0)" xlink:href="#aY"/><use transform="matrix(0.05185185185185186,0,0,0.05185185185185186,21.77777777777778,0)" xlink:href="#aZ"/><use transform="matrix(0.05185185185185186,0,0,0.05185185185185186,35.20740740740741,0)" xlink:href="#az"/><use transform="matrix(0.05185185185185186,0,0,0.05185185185185186,47.65185185185186,0)" xlink:href="#aZ"/><use transform="matrix(0.05185185185185186,0,0,0.05185185185185186,61.08148148148149,0)" xlink:href="#aZ"/></g><g id="G"><use transform="matrix(0.05185185185185186,0,0,0.05185185185185186,0,0)" xlink:href="#ah"/><use transform="matrix(0.05185185185185186,0,0,0.05185185185185186,4.0962962962962965,0)" xlink:href="#ai"/><use transform="matrix(0.05185185185185186,0,0,0.05185185185185186,9.281481481481482,0)" xlink:href="#aj"/><use transform="matrix(0.05185185185185186,0,0,0.05185185185185186,19.651851851851852,0)" xlink:href="#ak"/><use transform="matrix(0.05185185185185186,0,0,0.05185185185185186,35.15555555555556,0)" xlink:href="#al"/></g><path fill="#333" d="M206 0h-36l-40-164L89 0H53L-1-190h32L70-26l43-164h34l41 164 42-164h31" id="be"/><g id="H"><use transform="matrix(0.05185185185185186,0,0,0.05185185185185186,0,0)" xlink:href="#be"/><use transform="matrix(0.05185185185185186,0,0,0.05185185185185186,13.42962962962963,0)" xlink:href="#ah"/><use transform="matrix(0.05185185185185186,0,0,0.05185185185185186,17.525925925925925,0)" xlink:href="#ai"/><use transform="matrix(0.05185185185185186,0,0,0.05185185185185186,22.711111111111112,0)" xlink:href="#ap"/></g><path fill="#333" d="M66-151c12-25 30-51 66-40l-6 26C45-176 58-65 38 0H6l36-190h30" id="bf"/><path fill="#333" d="M165-48c-4 18 1 34 23 27l-3 20c-29 8-62 0-52-35h-2C116-14 99 4 63 4 30 4 8-16 8-49c0-68 71-67 138-67 10-26 0-56-31-54-26 1-42 9-47 31l-32-5c8-67 160-71 144 15-5 28-9 54-15 81zM42-50c3 52 80 24 89-6 7-12 7-24 11-38-47 1-103-4-100 44" id="bg"/><path fill="#333" d="M51-54c-9 22 5 41 31 30L79-1C43 14 10-4 19-52l22-115H19l5-23h22l19-43h21l-9 43h35l-4 23H73" id="bh"/><path fill="#333" d="M50-231l6-30h32l-6 30H50zM6 0l37-190h31L37 0H6" id="bi"/><path fill="#333" d="M30-147c31-64 166-65 159 27C183-49 158 1 86 4 9 8 1-88 30-147zM88-20c53 0 68-48 68-100 0-31-11-51-44-50-52 1-68 46-68 97 0 32 13 53 44 53" id="bj"/><path fill="#333" d="M18-27v-27l151-64-151-65v-27l175 74v36" id="bk"/><path fill="#333" d="M33 0v-38h34V0H33" id="bl"/><path fill="#333" d="M252-156c43 0 55 33 55 80 0 46-13 78-56 78-42 0-55-33-55-78 0-48 12-80 56-80zM93 0H65l162-248h28zM13-171c-1-47 13-79 56-79s55 33 55 79-13 79-55 79c-43 0-56-33-56-79zM251-17c28 0 30-29 30-59 0-31-1-60-29-60-29 0-31 29-31 60 0 29 2 59 30 59zM69-112c27 0 28-30 29-59 0-31-1-60-29-60-29 0-30 30-30 60s2 59 30 59" id="bm"/><g id="I"><use transform="matrix(0.05185185185185186,0,0,0.05185185185185186,0,0)" xlink:href="#bf"/><use transform="matrix(0.05185185185185186,0,0,0.05185185185185186,6.170370370370371,0)" xlink:href="#bg"/><use transform="matrix(0.05185185185185186,0,0,0.05185185185185186,16.540740740740745,0)" xlink:href="#bh"/><use transform="matrix(0.05185185185185186,0,0,0.05185185185185186,21.72592592592593,0)" xlink:href="#bi"/><use transform="matrix(0.05185185185185186,0,0,0.05185185185185186,25.82222222222223,0)" xlink:href="#bj"/><use transform="matrix(0.05185185185185186,0,0,0.05185185185185186,36.192592592592604,0)" xlink:href="#bk"/><use transform="matrix(0.05185185185185186,0,0,0.05185185185185186,47.08148148148149,0)" xlink:href="#as"/><use transform="matrix(0.05185185185185186,0,0,0.05185185185185186,57.451851851851856,0)" xlink:href="#bl"/><use transform="matrix(0.05185185185185186,0,0,0.05185185185185186,62.63703703703705,0)" xlink:href="#aW"/><use transform="matrix(0.05185185185185186,0,0,0.05185185185185186,73.00740740740741,0)" xlink:href="#bm"/></g><g id="J"><use transform="matrix(0.05185185185185186,0,0,0.05185185185185186,0,0)" xlink:href="#aO"/><use transform="matrix(0.05185185185185186,0,0,0.05185185185185186,13.42962962962963,0)" xlink:href="#aG"/><use transform="matrix(0.05185185185185186,0,0,0.05185185185185186,18.614814814814817,0)" xlink:href="#aF"/><use transform="matrix(0.05185185185185186,0,0,0.05185185185185186,28.985185185185188,0)" xlink:href="#aH"/><use transform="matrix(0.05185185185185186,0,0,0.05185185185185186,39.35555555555556,0)" xlink:href="#aH"/><use transform="matrix(0.05185185185185186,0,0,0.05185185185185186,49.725925925925935,0)" xlink:href="#aE"/><use transform="matrix(0.05185185185185186,0,0,0.05185185185185186,54.91111111111112,0)" xlink:href="#aD"/><use transform="matrix(0.05185185185185186,0,0,0.05185185185185186,65.28148148148149,0)" xlink:href="#aH"/></g><g id="K"><use transform="matrix(0.05185185185185186,0,0,0.05185185185185186,0,0)" xlink:href="#bb"/><use transform="matrix(0.05185185185185186,0,0,0.05185185185185186,10.370370370370372,0)" xlink:href="#bb"/><use transform="matrix(0.05185185185185186,0,0,0.05185185185185186,20.740740740740744,0)" xlink:href="#at"/></g><g id="L"><use transform="matrix(0.05185185185185186,0,0,0.05185185185185186,0,0)" xlink:href="#aZ"/><use transform="matrix(0.05185185185185186,0,0,0.05185185185185186,13.42962962962963,0)" xlink:href="#ax"/><use transform="matrix(0.05185185185185186,0,0,0.05185185185185186,23.800000000000004,0)" xlink:href="#ak"/><use transform="matrix(0.05185185185185186,0,0,0.05185185185185186,39.30370370370371,0)" xlink:href="#ao"/><use transform="matrix(0.05185185185185186,0,0,0.05185185185185186,49.674074074074085,0)" xlink:href="#ah"/><use transform="matrix(0.05185185185185186,0,0,0.05185185185185186,53.77037037037038,0)" xlink:href="#ar"/><use transform="matrix(0.05185185185185186,0,0,0.05185185185185186,64.14074074074075,0)" xlink:href="#aj"/><use transform="matrix(0.05185185185185186,0,0,0.05185185185185186,74.51111111111112,0)" xlink:href="#aq"/></g><g id="M"><use transform="matrix(0.05185185185185186,0,0,0.05185185185185186,0,0)" xlink:href="#aZ"/><use transform="matrix(0.05185185185185186,0,0,0.05185185185185186,13.42962962962963,0)" xlink:href="#ax"/><use transform="matrix(0.05185185185185186,0,0,0.05185185185185186,23.800000000000004,0)" xlink:href="#ag"/><use transform="matrix(0.05185185185185186,0,0,0.05185185185185186,27.8962962962963,0)" xlink:href="#ag"/><use transform="matrix(0.05185185185185186,0,0,0.05185185185185186,31.992592592592597,0)" xlink:href="#aj"/><use transform="matrix(0.05185185185185186,0,0,0.05185185185185186,42.36296296296297,0)" xlink:href="#au"/><use transform="matrix(0.05185185185185186,0,0,0.05185185185185186,51.6962962962963,0)" xlink:href="#ai"/><use transform="matrix(0.05185185185185186,0,0,0.05185185185185186,56.88148148148149,0)" xlink:href="#ah"/><use transform="matrix(0.05185185185185186,0,0,0.05185185185185186,60.97777777777778,0)" xlink:href="#ax"/><use transform="matrix(0.05185185185185186,0,0,0.05185185185185186,71.34814814814816,0)" xlink:href="#ar"/><use transform="matrix(0.05185185185185186,0,0,0.05185185185185186,81.71851851851852,0)" xlink:href="#al"/></g><path fill="#333" d="M101-251c82-7 93 87 43 132L82-64C71-53 59-42 53-27h129V0H18c2-99 128-94 128-182 0-28-16-43-45-43s-46 15-49 41l-32-3c6-41 34-60 81-64" id="bn"/><path fill="#333" d="M101-251c68 0 85 55 85 127S166 4 100 4C33 4 14-52 14-124c0-73 17-127 87-127zm-1 229c47 0 54-49 54-102s-4-102-53-102c-51 0-55 48-55 102 0 53 5 102 54 102" id="bo"/><g id="N"><use transform="matrix(0.05185185185185186,0,0,0.05185185185185186,0,0)" xlink:href="#aS"/><use transform="matrix(0.05185185185185186,0,0,0.05185185185185186,10.370370370370372,0)" xlink:href="#aR"/><use transform="matrix(0.05185185185185186,0,0,0.05185185185185186,15.555555555555557,0)" xlink:href="#bn"/><use transform="matrix(0.05185185185185186,0,0,0.05185185185185186,25.92592592592593,0)" xlink:href="#aS"/><use transform="matrix(0.05185185185185186,0,0,0.05185185185185186,36.296296296296305,0)" xlink:href="#bo"/></g><path fill="#333" d="M16-82v-28h88v28H16" id="bp"/><g id="O"><use transform="matrix(0.05185185185185186,0,0,0.05185185185185186,0,0)" xlink:href="#aZ"/><use transform="matrix(0.05185185185185186,0,0,0.05185185185185186,13.42962962962963,0)" xlink:href="#ax"/><use transform="matrix(0.05185185185185186,0,0,0.05185185185185186,23.800000000000004,0)" xlink:href="#bp"/><use transform="matrix(0.05185185185185186,0,0,0.05185185185185186,29.970370370370375,0)" xlink:href="#au"/><use transform="matrix(0.05185185185185186,0,0,0.05185185185185186,39.30370370370371,0)" xlink:href="#ah"/><use transform="matrix(0.05185185185185186,0,0,0.05185185185185186,43.400000000000006,0)" xlink:href="#ai"/><use transform="matrix(0.05185185185185186,0,0,0.05185185185185186,48.58518518518519,0)" xlink:href="#av"/><use transform="matrix(0.05185185185185186,0,0,0.05185185185185186,58.95555555555556,0)" xlink:href="#ai"/><use transform="matrix(0.05185185185185186,0,0,0.05185185185185186,64.14074074074075,0)" xlink:href="#ah"/><use transform="matrix(0.05185185185185186,0,0,0.05185185185185186,68.23703703703706,0)" xlink:href="#ax"/><use transform="matrix(0.05185185185185186,0,0,0.05185185185185186,78.60740740740742,0)" xlink:href="#ar"/></g><g id="P"><use transform="matrix(0.05185185185185186,0,0,0.05185185185185186,0,0)" xlink:href="#aV"/><use transform="matrix(0.05185185185185186,0,0,0.05185185185185186,10.370370370370372,0)" xlink:href="#ay"/><use transform="matrix(0.05185185185185186,0,0,0.05185185185185186,16.540740740740745,0)" xlink:href="#av"/><use transform="matrix(0.05185185185185186,0,0,0.05185185185185186,26.91111111111112,0)" xlink:href="#am"/><use transform="matrix(0.05185185185185186,0,0,0.05185185185185186,37.28148148148149,0)" xlink:href="#ap"/></g><g id="Q"><use transform="matrix(0.05185185185185186,0,0,0.05185185185185186,0,0)" xlink:href="#be"/><use transform="matrix(0.05185185185185186,0,0,0.05185185185185186,13.42962962962963,0)" xlink:href="#ah"/><use transform="matrix(0.05185185185185186,0,0,0.05185185185185186,17.525925925925925,0)" xlink:href="#ai"/><use transform="matrix(0.05185185185185186,0,0,0.05185185185185186,22.711111111111112,0)" xlink:href="#ap"/></g><path fill="#333" d="M18-150v-26h174v26H18zm0 90v-26h174v26H18" id="bq"/><g id="R"><use transform="matrix(0.05185185185185186,0,0,0.05185185185185186,0,0)" xlink:href="#be"/><use transform="matrix(0.05185185185185186,0,0,0.05185185185185186,13.42962962962963,0)" xlink:href="#aj"/><use transform="matrix(0.05185185185185186,0,0,0.05185185185185186,23.800000000000004,0)" xlink:href="#ah"/><use transform="matrix(0.05185185185185186,0,0,0.05185185185185186,27.8962962962963,0)" xlink:href="#aV"/><use transform="matrix(0.05185185185185186,0,0,0.05185185185185186,38.26666666666667,0)" xlink:href="#ap"/><use transform="matrix(0.05185185185185186,0,0,0.05185185185185186,48.63703703703705,0)" xlink:href="#ai"/><use transform="matrix(0.05185185185185186,0,0,0.05185185185185186,53.82222222222223,0)" xlink:href="#bq"/><use transform="matrix(0.05185185185185186,0,0,0.05185185185185186,64.71111111111112,0)" xlink:href="#aS"/></g><use transform="matrix(0.05185185185185186,0,0,0.05185185185185186,0,0)" xlink:href="#az" id="S"/><g id="T"><use transform="matrix(0.05185185185185186,0,0,0.05185185185185186,0,0)" xlink:href="#aq"/><use transform="matrix(0.05185185185185186,0,0,0.05185185185185186,10.370370370370372,0)" xlink:href="#aj"/><use transform="matrix(0.05185185185185186,0,0,0.05185185185185186,20.740740740740744,0)" xlink:href="#aV"/><use transform="matrix(0.05185185185185186,0,0,0.05185185185185186,31.111111111111114,0)" xlink:href="#ay"/><use transform="matrix(0.05185185185185186,0,0,0.05185185185185186,37.281481481481485,0)" xlink:href="#aj"/><use transform="matrix(0.05185185185185186,0,0,0.05185185185185186,47.65185185185186,0)" xlink:href="#aj"/><use transform="matrix(0.05185185185185186,0,0,0.05185185185185186,58.022222222222226,0)" xlink:href="#bk"/><use transform="matrix(0.05185185185185186,0,0,0.05185185185185186,68.91111111111113,0)" xlink:href="#as"/></g><path d="M64 0c3-98 48-159 88-221H18v-27h164v26C143-157 98-101 97 0H64" id="br"/><path d="M101-251c82-7 93 87 43 132L82-64C71-53 59-42 53-27h129V0H18c2-99 128-94 128-182 0-28-16-43-45-43s-46 15-49 41l-32-3c6-41 34-60 81-64" id="bs"/><path d="M101-251c68 0 85 55 85 127S166 4 100 4C33 4 14-52 14-124c0-73 17-127 87-127zm-1 229c47 0 54-49 54-102s-4-102-53-102c-51 0-55 48-55 102 0 53 5 102 54 102" id="bt"/><g id="V"><use transform="matrix(0.048148148148148155,0,0,0.048148148148148155,0,0)" xlink:href="#br"/><use transform="matrix(0.048148148148148155,0,0,0.048148148148148155,9.629629629629632,0)" xlink:href="#bs"/><use transform="matrix(0.048148148148148155,0,0,0.048148148148148155,19.259259259259263,0)" xlink:href="#bt"/></g><path d="M117-194c89-4 53 116 60 194h-32v-121c0-31-8-49-39-48C34-167 62-67 57 0H25l-1-190h30c1 10-1 24 2 32 11-22 29-35 61-36" id="bu"/><path d="M100-194c62-1 85 37 85 99 1 63-27 99-86 99S16-35 15-95c0-66 28-99 85-99zM99-20c44 1 53-31 53-75 0-43-8-75-51-75s-53 32-53 75 10 74 51 75" id="bv"/><path d="M85-194c31 0 48 13 60 33l-1-100h32l1 261h-30c-2-10 0-23-3-31C134-8 116 4 85 4 32 4 16-35 15-94c0-66 23-100 70-100zm9 24c-40 0-46 34-46 75 0 40 6 74 45 74 42 0 51-32 51-76 0-42-9-74-50-73" id="bw"/><path d="M100-194c63 0 86 42 84 106H49c0 40 14 67 53 68 26 1 43-12 49-29l28 8c-11 28-37 45-77 45C44 4 14-33 15-96c1-61 26-98 85-98zm52 81c6-60-76-77-97-28-3 7-6 17-6 28h103" id="bx"/><path d="M135-143c-3-34-86-38-87 0 15 53 115 12 119 90S17 21 10-45l28-5c4 36 97 45 98 0-10-56-113-15-118-90-4-57 82-63 122-42 12 7 21 19 24 35" id="by"/><g id="W"><use transform="matrix(0.048148148148148155,0,0,0.048148148148148155,0,0)" xlink:href="#bu"/><use transform="matrix(0.048148148148148155,0,0,0.048148148148148155,9.629629629629632,0)" xlink:href="#bv"/><use transform="matrix(0.048148148148148155,0,0,0.048148148148148155,19.259259259259263,0)" xlink:href="#bw"/><use transform="matrix(0.048148148148148155,0,0,0.048148148148148155,28.888888888888893,0)" xlink:href="#bx"/><use transform="matrix(0.048148148148148155,0,0,0.048148148148148155,38.518518518518526,0)" xlink:href="#by"/></g><path fill="#333" d="M30 0v-248h187v28H63v79h144v27H63v87h162V0H30" id="bz"/><path fill="#333" d="M141 0L90-78 38 0H4l68-98-65-92h35l48 74 47-74h35l-64 92 68 98h-35" id="bA"/><g id="Y"><use transform="matrix(0.05185185185185186,0,0,0.05185185185185186,0,0)" xlink:href="#bz"/><use transform="matrix(0.05185185185185186,0,0,0.05185185185185186,12.444444444444446,0)" xlink:href="#bA"/><use transform="matrix(0.05185185185185186,0,0,0.05185185185185186,21.77777777777778,0)" xlink:href="#au"/><use transform="matrix(0.05185185185185186,0,0,0.05185185185185186,31.111111111111114,0)" xlink:href="#ag"/><use transform="matrix(0.05185185185185186,0,0,0.05185185185185186,35.20740740740741,0)" xlink:href="#an"/><use transform="matrix(0.05185185185185186,0,0,0.05185185185185186,45.57777777777778,0)" xlink:href="#aq"/><use transform="matrix(0.05185185185185186,0,0,0.05185185185185186,55.94814814814816,0)" xlink:href="#aj"/></g><g id="Z"><use transform="matrix(0.05185185185185186,0,0,0.05185185185185186,0,0)" xlink:href="#al"/><use transform="matrix(0.05185185185185186,0,0,0.05185185185185186,9.333333333333334,0)" xlink:href="#ak"/><use transform="matrix(0.05185185185185186,0,0,0.05185185185185186,24.83703703703704,0)" xlink:href="#av"/><use transform="matrix(0.05185185185185186,0,0,0.05185185185185186,35.20740740740741,0)" xlink:href="#ag"/><use transform="matrix(0.05185185185185186,0,0,0.05185185185185186,39.303703703703704,0)" xlink:href="#ag"/></g><g id="aa"><use transform="matrix(0.05185185185185186,0,0,0.05185185185185186,0,0)" xlink:href="#au"/><use transform="matrix(0.05185185185185186,0,0,0.05185185185185186,9.333333333333334,0)" xlink:href="#ax"/><use transform="matrix(0.05185185185185186,0,0,0.05185185185185186,19.703703703703706,0)" xlink:href="#ak"/><use transform="matrix(0.05185185185185186,0,0,0.05185185185185186,35.20740740740741,0)" xlink:href="#am"/><use transform="matrix(0.05185185185185186,0,0,0.05185185185185186,45.57777777777778,0)" xlink:href="#ax"/><use transform="matrix(0.05185185185185186,0,0,0.05185185185185186,55.94814814814816,0)" xlink:href="#ar"/><use transform="matrix(0.05185185185185186,0,0,0.05185185185185186,66.31851851851853,0)" xlink:href="#aj"/><use transform="matrix(0.05185185185185186,0,0,0.05185185185185186,76.6888888888889,0)" xlink:href="#ar"/><use transform="matrix(0.05185185185185186,0,0,0.05185185185185186,87.05925925925926,0)" xlink:href="#ai"/><use transform="matrix(0.05185185185185186,0,0,0.05185185185185186,92.24444444444445,0)" xlink:href="#al"/></g><path d="M52 0c1-96 47-148 87-207H15v-41h169v40c-36 62-79 113-81 208H52" id="bB"/><path d="M23 0v-37h61v-169l-59 37v-38l62-41h46v211h57V0H23" id="bC"/><path d="M128-127c34 4 56 21 59 58 7 91-148 94-172 28-4-9-6-17-7-26l51-5c1 24 16 35 40 36 23 0 39-12 38-36-1-31-31-36-65-34v-40c32 2 59-3 59-33 0-20-13-33-34-33s-33 13-35 32l-50-3c6-44 37-68 86-68 50 0 83 20 83 66 0 35-22 52-53 58" id="bD"/><g id="ac"><use transform="matrix(0.048148148148148155,0,0,0.048148148148148155,0,0)" xlink:href="#bB"/><use transform="matrix(0.048148148148148155,0,0,0.048148148148148155,9.629629629629632,0)" xlink:href="#bC"/><use transform="matrix(0.048148148148148155,0,0,0.048148148148148155,19.259259259259263,0)" xlink:href="#bD"/></g><path d="M135-194c87-1 58 113 63 194h-50c-7-57 23-157-34-157-59 0-34 97-39 157H25l-1-190h47c2 12-1 28 3 38 12-26 28-41 61-42" id="bE"/><path d="M110-194c64 0 96 36 96 99 0 64-35 99-97 99-61 0-95-36-95-99 0-62 34-99 96-99zm-1 164c35 0 45-28 45-65 0-40-10-65-43-65-34 0-45 26-45 65 0 36 10 65 43 65" id="bF"/><path d="M88-194c31-1 46 15 58 34l-1-101h50l1 261h-48c-2-10 0-23-3-31C134-8 116 4 84 4 32 4 16-41 15-95c0-56 19-97 73-99zm17 164c33 0 40-30 41-66 1-37-9-64-41-64s-38 30-39 65c0 43 13 65 39 65" id="bG"/><path d="M185-48c-13 30-37 53-82 52C43 2 14-33 14-96s30-98 90-98c62 0 83 45 84 108H66c0 31 8 55 39 56 18 0 30-7 34-22zm-45-69c5-46-57-63-70-21-2 6-4 13-4 21h74" id="bH"/><path d="M137-138c1-29-70-34-71-4 15 46 118 7 119 86 1 83-164 76-172 9l43-7c4 19 20 25 44 25 33 8 57-30 24-41C81-84 22-81 20-136c-2-80 154-74 161-7" id="bI"/><g id="ad"><use transform="matrix(0.048148148148148155,0,0,0.048148148148148155,0,0)" xlink:href="#bE"/><use transform="matrix(0.048148148148148155,0,0,0.048148148148148155,10.544444444444446,0)" xlink:href="#bF"/><use transform="matrix(0.048148148148148155,0,0,0.048148148148148155,21.088888888888892,0)" xlink:href="#bG"/><use transform="matrix(0.048148148148148155,0,0,0.048148148148148155,31.633333333333336,0)" xlink:href="#bH"/><use transform="matrix(0.048148148148148155,0,0,0.048148148148148155,41.26296296296297,0)" xlink:href="#bI"/></g></defs></g></svg>